<?xml version="1.0" standalone="no"?>
<!DOCTYPE svg PUBLIC "-//W3C//DTD SVG 20010904//EN"
 "http://www.w3.org/TR/2001/REC-SVG-20010904/DTD/svg10.dtd">
<svg version="1.0" xmlns="http://www.w3.org/2000/svg"
 width="950.000000pt" height="950.000000pt" viewBox="0 0 950.000000 950.000000"
 preserveAspectRatio="xMidYMid meet">
<metadata>
Created by potrace 1.11, written by Peter Selinger 2001-2013
</metadata>
<g transform="translate(0.000000,950.000000) scale(0.100000,-0.100000)"
fill="#000000" stroke="none">
<path d="M6275 6789 c-226 -23 -398 -71 -600 -169 -349 -168 -622 -441 -801
-800 -65 -130 -130 -313 -150 -420 -2 -14 -9 -47 -14 -75 -21 -112 -29 -178
-35 -320 -5 -122 -12 -204 -20 -240 -3 -11 -7 -32 -10 -47 -12 -67 -18 -88
-45 -170 -121 -362 -373 -654 -714 -827 -292 -149 -594 -189 -938 -125 -52 9
-181 50 -249 79 -211 89 -413 238 -548 405 -20 25 -38 47 -41 50 -23 23 -98
145 -136 221 -112 225 -158 422 -156 665 1 61 3 124 6 140 3 16 8 49 11 74 24
176 118 413 225 569 304 446 805 681 1335 628 90 -9 113 -14 210 -39 44 -11
90 -22 103 -25 l22 -5 0 174 0 174 -47 12 c-56 13 -196 38 -268 47 -63 8 -276
8 -341 0 -295 -37 -499 -105 -739 -249 -130 -77 -218 -147 -335 -265 -116
-116 -143 -149 -225 -271 -141 -210 -251 -503 -282 -750 -4 -36 -8 -148 -7
-250 1 -147 5 -209 23 -300 106 -555 461 -1025 957 -1269 164 -81 382 -148
534 -166 30 -3 69 -8 85 -10 39 -6 282 -7 315 -1 14 2 48 7 75 11 99 13 121
17 210 41 50 13 97 26 105 28 87 22 338 146 445 219 220 151 422 359 537 552
100 167 181 414 214 650 3 22 7 51 10 65 4 23 6 59 19 285 3 50 7 99 9 110 2
11 7 45 11 75 13 107 72 285 134 405 89 175 275 396 421 501 129 94 293 178
425 218 156 48 247 61 425 61 200 -1 265 -11 450 -72 402 -132 751 -473 894
-873 15 -41 31 -77 36 -80 5 -3 82 -5 172 -5 156 0 163 1 163 20 1 37 -76 249
-128 355 -254 518 -761 894 -1317 976 -25 3 -54 8 -65 10 -40 8 -302 10 -370
3z"/>
<path d="M6320 6050 c-30 -4 -67 -11 -82 -14 -16 -3 -39 -8 -53 -11 -54 -12
-174 -60 -243 -99 -232 -129 -409 -344 -492 -595 -47 -141 -53 -213 -53 -635
l-1 -348 665 0 c365 0 679 1 697 1 l32 1 -2 158 -3 157 -532 0 c-467 0 -533 2
-534 15 0 8 -1 105 -1 215 1 267 21 354 119 508 137 216 376 341 633 333 217
-8 390 -91 538 -261 l44 -50 179 -1 c134 -1 179 2 179 11 0 21 -97 174 -155
245 -148 181 -359 307 -595 356 -85 18 -257 25 -340 14z"/>
<path d="M3140 6008 c-456 -48 -836 -420 -896 -878 -16 -116 -6 -278 21 -385
86 -327 302 -568 636 -709 119 -51 330 -73 489 -53 68 9 191 43 247 68 24 11
54 24 68 29 l25 10 0 191 0 191 -47 -34 c-181 -127 -380 -171 -578 -127 -241
52 -433 226 -516 468 -62 179 -37 404 62 570 192 320 590 436 922 270 34 -17
81 -47 104 -65 23 -19 44 -34 47 -34 3 0 6 85 6 189 l0 188 -70 32 c-156 69
-343 98 -520 79z"/>
<path d="M5397 3980 c-9 -4 -12 -93 -12 -381 l0 -376 157 0 158 0 1 26 c0 14
1 113 1 219 1 105 4 192 7 193 3 0 249 1 546 2 l540 2 0 153 c0 84 -2 156 -5
160 -6 8 -1374 10 -1393 2z"/>
</g>
</svg>
