<svg id="Capa_1" data-name="Capa 1" xmlns="http://www.w3.org/2000/svg" viewBox="0 0 564.66 241.11"><defs><style>.cls-1{fill:#df6d27;}.cls-2{fill:#fff;}</style></defs><title>logo_blanco</title><path class="cls-1" d="M423.59,123.31H414v-23H456.7V110H423.59Z" transform="translate(-114.34 -14.88)"/><path class="cls-1" d="M456.48,89.21H414.39l0-20.26a31.87,31.87,0,0,1,60.37-14l.8,1.57h-11l-.33-.44A22.24,22.24,0,0,0,424,69.17V79.61h32.48Z" transform="translate(-114.34 -14.88)"/><path class="cls-1" d="M349.3,100.54a31,31,0,0,1,0-61.93A29.57,29.57,0,0,1,363.11,42l.58.3V53.66L362,52.39a21.14,21.14,0,0,0-12.68-4.18,21.37,21.37,0,0,0,0,42.73A22.6,22.6,0,0,0,362,86.74l1.7-1.21V96.89l-.6.3A31.45,31.45,0,0,1,349.3,100.54Z" transform="translate(-114.34 -14.88)"/><path class="cls-1" d="M349,123.15a53.77,53.77,0,0,1,0-107.53,56.33,56.33,0,0,1,13.9,1.82l.8.21V28.23l-1.4-.43a46.82,46.82,0,0,0-13.3-2,43.63,43.63,0,1,0,43.42,43.69l.06-.87c1.12-30.6,24.15-53.7,53.56-53.7a54,54,0,0,1,51.86,40.2l.36,1.36H487.74l-.24-.76C481.76,37.63,464.7,25,446,25a43.57,43.57,0,0,0-43.42,43.63c-.66,19-7.48,28.8-8,29.65l-2.37,3.35C381.55,115.08,365.76,123.15,349,123.15Z" transform="translate(-114.34 -14.88)"/><path class="cls-2" d="M321.42,255.59l-2.57-5.73H304.92l-2.53,5.73h-1.93l10.46-23.33h2l10.46,23.33Zm-3.27-7.4L311.89,234l-6.27,14.2Z" transform="translate(-114.34 -14.88)"/><path class="cls-2" d="M343.74,238.63a5.11,5.11,0,0,1-3.8,5,6,6,0,0,1,4.6,5.87c0,4.8-4.47,6.1-8.47,6.1h-9.56V232.26h9.56C340,232.26,343.74,234.19,343.74,238.63Zm-15.43,4.19h8c2.8,0,5.73-.86,5.73-4.19s-3.07-4.84-6-4.84h-7.76Zm0,11h7.76c2.94,0,6.7-.69,6.7-4.39s-3.33-4.94-6.46-4.94h-8Z" transform="translate(-114.34 -14.88)"/><path class="cls-2" d="M371.06,244c0,6.13-3.94,12-11.77,12s-11.76-5.93-11.76-12.1,3.9-12,11.76-12S371.09,237.66,371.06,244Zm-21.76,0c0,5.27,3.36,10.4,10,10.4s10-5.13,10-10.4-3.33-10.36-10-10.36S349.26,238.43,349.3,243.92Z" transform="translate(-114.34 -14.88)"/><path class="cls-2" d="M394.18,236.56a10.86,10.86,0,0,0-7.5-3c-6.83,0-10.33,5-10.3,10.4s3.5,10.23,10.3,10.23a10.54,10.54,0,0,0,7.1-2.7V245h-8.14v-1.57h9.83v8.73a12,12,0,0,1-8.79,3.77c-7.93,0-12-5.53-12-11.9,0-7.3,4.93-12.06,12-12.06a12.17,12.17,0,0,1,8.53,3.5Z" transform="translate(-114.34 -14.88)"/><path class="cls-2" d="M418.73,255.59l-2.57-5.73H402.23l-2.53,5.73h-1.93l10.46-23.33h2l10.46,23.33Zm-3.27-7.4L409.2,234l-6.27,14.2Z" transform="translate(-114.34 -14.88)"/><path class="cls-2" d="M443.58,243.66c.13,5.93-3.66,11.93-11.83,11.93h-7.9V232.26h7.9C439.65,232.26,443.45,237.93,443.58,243.66ZM425.65,234v19.89h6.1c6.93,0,10.13-5.19,10-10.19s-3.3-9.7-10-9.7Z" transform="translate(-114.34 -14.88)"/><path class="cls-2" d="M470.83,244c0,6.13-3.93,12-11.76,12s-11.77-5.93-11.77-12.1,3.9-12,11.77-12S470.86,237.66,470.83,244Zm-21.76,0c0,5.27,3.37,10.4,10,10.4s10-5.13,10-10.4-3.33-10.36-10-10.36S449,238.43,449.07,243.92Z" transform="translate(-114.34 -14.88)"/><path class="cls-2" d="M490.72,236.76c-1.7-2.73-4.44-3.13-7.07-3.17s-7.06,1-7.06,4.74c0,3,3.2,3.66,7.13,4.39,4.5.87,9.16,1.67,9.16,6.7,0,5.27-5.33,6.53-9.23,6.53-3.63,0-7.76-1.5-9.56-5.06l1.6-.8c1.43,2.83,5.1,4.23,8,4.23s7.43-.8,7.43-4.93c0-3.5-3.83-4.27-7.66-5-4.27-.83-8.63-1.7-8.63-6-.1-4.93,5-6.46,8.86-6.46,3.33,0,6.23.53,8.53,4Z" transform="translate(-114.34 -14.88)"/><path class="cls-2" d="M158,194.6a25.28,25.28,0,0,1-18.22,7.12c-17.82,0-25.35-12.26-25.42-24.73s8.08-25.28,25.42-25.28A24.73,24.73,0,0,1,157.37,159l-6,5.82a16.49,16.49,0,0,0-11.58-4.52c-11.58,0-16.58,8.63-16.51,16.65s4.66,16.24,16.51,16.24a17.69,17.69,0,0,0,12.06-4.87Z" transform="translate(-114.34 -14.88)"/><path class="cls-2" d="M196.36,191.58H171.28l-4.11,9h-9.8l21.52-48h9.86l21.52,48H200.4Zm-12.54-28.84-8.91,20.41h17.82Z" transform="translate(-114.34 -14.88)"/><path class="cls-2" d="M256.18,200.63H245.42l-14-16h-8.7v16h-9v-48c7.6,0,15.21.07,22.81.07,11.31.06,17.27,7.6,17.27,15.89,0,6.58-3,13.22-12.13,15.07L256.18,200Zm-33.44-39.54v15.35h13.77c5.76,0,8.23-3.84,8.23-7.67s-2.54-7.68-8.23-7.68Z" transform="translate(-114.34 -14.88)"/><path class="cls-2" d="M307,176.92c-.13,12.4-7.74,24.8-24.59,24.8S257.76,189.6,257.76,177s8.09-25.28,24.67-25.28S307.16,164.38,307,176.92Zm-40.35.21c.2,7.87,4.45,16.3,15.76,16.3s15.55-8.49,15.69-16.37c.13-8.09-4.39-17.13-15.69-17.13S266.46,169,266.67,177.13Z" transform="translate(-114.34 -14.88)"/><path class="cls-2" d="M330.26,200.63v-47.9h34.46v8.71H339.3v13.08h24.05v8.36H339.3v17.75Z" transform="translate(-114.34 -14.88)"/><path class="cls-2" d="M373.09,200.63v-48h9v48Z" transform="translate(-114.34 -14.88)"/><path class="cls-2" d="M427.42,164.38a18.37,18.37,0,0,0-12.19-4.79c-10.28,0-16.52,7.81-16.52,17.67,0,7.88,4.6,16,16.52,16a16,16,0,0,0,10.82-3.83V181H413.79v-8.08h20.55v20.21a23.87,23.87,0,0,1-19.11,8.63c-18,0-25.35-11.85-25.35-24.46,0-13.5,8.42-26,25.35-26A25.29,25.29,0,0,1,433,158.63Z" transform="translate(-114.34 -14.88)"/><path class="cls-2" d="M483.82,152.73v27.48c0,14.18-8.7,21.44-20.76,21.44-11.51,0-21.31-7-21.31-21.44V152.73h9v27.48c0,8.63,4.94,13.22,12.41,13.22s11.71-5,11.71-13.22V152.73Z" transform="translate(-114.34 -14.88)"/><path class="cls-2" d="M527.74,200.63h-35.9v-48h35.9v8.77H500.82v11h26v8.42h-26v10.83h26.92Z" transform="translate(-114.34 -14.88)"/><path class="cls-2" d="M577.29,200.63H566.53l-14-16h-8.7v16h-9v-48c7.6,0,15.21.07,22.81.07,11.31.06,17.27,7.6,17.27,15.89,0,6.58-3,13.22-12.13,15.07L577.29,200Zm-33.44-39.54v15.35h13.77c5.76,0,8.23-3.84,8.23-7.67s-2.54-7.68-8.23-7.68Z" transform="translate(-114.34 -14.88)"/><path class="cls-2" d="M628.5,176.92c-.14,12.4-7.75,24.8-24.6,24.8S579.24,189.6,579.24,177s8.08-25.28,24.66-25.28S628.63,164.38,628.5,176.92Zm-40.36.21c.21,7.87,4.46,16.3,15.76,16.3s15.55-8.49,15.69-16.37c.14-8.09-4.38-17.13-15.69-17.13S587.94,169,588.14,177.13Z" transform="translate(-114.34 -14.88)"/><path class="cls-2" d="M665.09,191.58H640l-4.11,9h-9.8l21.51-48h9.87l21.51,48h-9.87Zm-12.54-28.84-8.9,20.41h17.81Z" transform="translate(-114.34 -14.88)"/><path class="cls-2" d="M578.25,219H215.09a.84.84,0,0,1,0-1.68H578.25a.84.84,0,1,1,0,1.68Z" transform="translate(-114.34 -14.88)"/></svg>