<?xml version="1.0" encoding="utf-8"?>
<!-- Generator: Adobe Illustrator 16.0.0, SVG Export Plug-In . SVG Version: 6.00 Build 0)  -->
<!DOCTYPE svg PUBLIC "-//W3C//DTD SVG 1.1//EN" "http://www.w3.org/Graphics/SVG/1.1/DTD/svg11.dtd">
<svg version="1.1" id="Capa_1" xmlns="http://www.w3.org/2000/svg" xmlns:xlink="http://www.w3.org/1999/xlink" x="0px" y="0px"
	 width="472px" height="223px" viewBox="0 0 472 223" style="enable-background:new 0 0 472 223;" xml:space="preserve">
<style type="text/css">
<![CDATA[
	.st0{fill:#4D4D4F;}
	.st1{fill:#EF7622;}
]]>
</style>
<polygon class="st1" points="260.437,107.589 252.785,107.589 252.785,89.286 286.827,89.286 286.827,96.937 260.437,96.937 "/>
<path class="st1" d="M286.649,80.412h-33.536l0.009-16.139c0.098-13.904,11.481-25.211,25.378-25.211
	c9.62,0,18.331,5.379,22.732,14.039l0.636,1.251l-8.79-0.001l-0.259-0.352c-3.336-4.564-8.69-7.288-14.319-7.288
	c-9.777,0-17.732,7.956-17.732,17.734v8.317h25.882V80.412z"/>
<path class="st1" d="M201.242,89.439c-13.604,0-24.672-11.069-24.672-24.673c0-13.605,11.068-24.673,24.672-24.673
	c3.865,0,7.464,0.881,11.003,2.695l0.467,0.239l0.009,9.063l-1.374-1.017c-2.947-2.178-6.441-3.33-10.105-3.33
	c-9.385,0-17.02,7.636-17.02,17.023c0,9.387,7.635,17.023,17.02,17.023c3.428,0,7.113-1.22,10.112-3.347l1.359-0.963v9.055
	l-0.48,0.237C208.692,88.516,204.892,89.439,201.242,89.439"/>
<path class="st1" d="M200.993,107.463c-23.537,0-42.687-19.22-42.687-42.845c0-23.624,19.15-42.844,42.687-42.844
	c3.568,0,7.501,0.514,11.076,1.449l0.644,0.168v8.436l-1.115-0.345c-3.345-1.035-7.211-1.628-10.605-1.628
	c-19.081,0-34.604,15.595-34.604,34.764c0,19.17,15.523,34.766,34.604,34.766c19.052,0,34.575-15.572,34.602-34.713l0.044-0.696
	c0.896-24.383,19.248-42.789,42.686-42.789c19.271,0,36.262,13.172,41.317,32.03l0.291,1.084h-8.378l-0.189-0.6
	c-4.577-14.386-18.164-24.434-33.041-24.434c-19.081,0-34.605,15.595-34.605,34.766c-0.524,15.137-5.956,22.95-6.363,23.627
	l-1.892,2.666C226.939,101.026,214.36,107.463,200.993,107.463"/>
<path class="st0" d="M332.93,176.651H141.407c-0.244,0-0.442-0.382-0.442-0.854s0.198-0.854,0.442-0.854H332.93
	c0.245,0,0.443,0.382,0.443,0.854S333.175,176.651,332.93,176.651"/>
<path class="st0" d="M28.06,155.047c-2.378,2.336-4.88,3.254-7.925,3.254c-5.965,0-10.929-3.588-10.929-10.887
	c0-7.3,4.964-10.887,10.929-10.887c2.92,0,5.172,0.834,7.424,3.045l-3.211,3.379c-1.21-1.085-2.712-1.627-4.13-1.627
	c-3.42,0-5.923,2.503-5.923,6.09c0,3.921,2.67,6.006,5.84,6.006c1.627,0,3.253-0.458,4.505-1.71L28.06,155.047z"/>
<path class="st0" d="M35.482,149.208c0.334,2.544,2.545,4.38,6.132,4.38c1.877,0,4.338-0.709,5.506-1.919l3.253,3.212
	c-2.169,2.252-5.714,3.337-8.842,3.337c-7.091,0-11.304-4.38-11.304-10.97c0-6.257,4.254-10.762,10.928-10.762
	c6.882,0,11.179,4.254,10.386,12.722H35.482z M46.661,144.995c-0.334-2.67-2.419-4.004-5.339-4.004
	c-2.753,0-5.005,1.334-5.756,4.004H46.661z"/>
<path class="st0" d="M70.602,157.675v-10.762c0-3.128-1.71-5.505-4.964-5.505c-3.128,0-5.255,2.627-5.255,5.756v10.511h-5.047
	V137.07h4.546l0.334,2.794c2.085-2.044,4.171-3.086,6.757-3.086c4.839,0,8.718,3.628,8.718,10.094v10.803H70.602z"/>
<path class="st0" d="M86.368,131.313v5.84h5.673v4.379h-5.715v8.885c0,1.96,1.085,2.919,2.67,2.919c0.792,0,1.71-0.25,2.461-0.625
	l1.418,4.338c-1.46,0.584-2.669,0.834-4.213,0.876c-4.463,0.167-7.383-2.378-7.383-7.508v-8.885h-3.837v-4.379h3.837v-5.298
	L86.368,131.313z"/>
<path class="st0" d="M100.549,137.112l0.375,2.377c1.585-2.544,3.713-2.919,5.798-2.919c2.128,0,4.171,0.834,5.298,1.96
	l-2.295,4.421c-1.042-0.875-2.002-1.334-3.67-1.334c-2.67,0-5.131,1.418-5.131,5.214v10.845h-5.088v-20.564H100.549z"/>
<path class="st0" d="M134.376,147.414c0,5.923-4.046,10.721-10.72,10.721s-10.678-4.798-10.678-10.721
	c0-5.881,4.088-10.72,10.637-10.72C130.163,136.694,134.376,141.533,134.376,147.414 M118.067,147.414
	c0,3.128,1.877,6.048,5.589,6.048c3.713,0,5.59-2.92,5.59-6.048c0-3.087-2.169-6.09-5.59-6.09
	C119.986,141.324,118.067,144.327,118.067,147.414"/>
<path class="st0" d="M167.66,128.519v29.157h-4.755l-0.334-2.837c-1.585,2.461-4.129,3.296-6.632,3.296
	c-6.048,0-10.595-4.005-10.595-10.763c0-7.091,4.463-10.762,10.47-10.762c2.169,0,5.547,1.168,6.757,3.296v-11.388H167.66z
	 M150.433,147.372c0,3.587,2.586,6.048,5.84,6.048c3.211,0,5.964-2.336,5.964-6.048c0-3.586-2.753-6.006-5.964-6.006
	C153.019,141.366,150.433,143.661,150.433,147.372"/>
<path class="st0" d="M176.876,149.208c0.334,2.544,2.545,4.38,6.132,4.38c1.877,0,4.338-0.709,5.506-1.919l3.253,3.212
	c-2.169,2.252-5.714,3.337-8.842,3.337c-7.091,0-11.304-4.38-11.304-10.97c0-6.257,4.254-10.762,10.928-10.762
	c6.882,0,11.179,4.254,10.386,12.722H176.876z M188.055,144.995c-0.334-2.67-2.419-4.004-5.339-4.004
	c-2.753,0-5.005,1.334-5.756,4.004H188.055z"/>
<path class="st0" d="M220.421,157.675v-10.762c0-3.128-1.71-5.505-4.964-5.505c-3.128,0-5.255,2.627-5.255,5.756v10.511h-5.047
	V137.07h4.546l0.334,2.794c2.085-2.044,4.171-3.086,6.757-3.086c4.839,0,8.718,3.628,8.718,10.094v10.803H220.421z"/>
<path class="st0" d="M234.227,149.208c0.334,2.544,2.545,4.38,6.132,4.38c1.877,0,4.338-0.709,5.506-1.919l3.253,3.212
	c-2.169,2.252-5.714,3.337-8.843,3.337c-7.09,0-11.303-4.38-11.303-10.97c0-6.257,4.254-10.762,10.928-10.762
	c6.882,0,11.179,4.254,10.386,12.722H234.227z M245.405,144.995c-0.334-2.67-2.419-4.004-5.339-4.004
	c-2.753,0-5.006,1.334-5.756,4.004H245.405z"/>
<path class="st0" d="M270.348,135.026l3.754,2.836l-2.294,2.92c1.585,1.794,2.169,3.837,2.169,6.09c0,2.544-0.96,6.131-4.338,7.675
	c3.42,1.71,4.254,4.171,4.254,6.799c0,5.673-4.338,9.177-10.302,9.177c-5.965,0-10.428-3.63-10.428-9.177h5.047
	c0,2.669,2.461,4.421,5.381,4.421s5.214-1.585,5.214-4.421c0-2.837-2.67-4.13-5.214-4.13c-6.424,0-10.428-3.921-10.428-10.344
	c0-6.424,4.672-10.428,10.428-10.428c1.626,0,3.295,0.209,4.713,1.168L270.348,135.026z M258.21,146.872
	c0,3.587,2.419,5.714,5.381,5.714c2.92,0,5.339-2.169,5.339-5.714c0-3.546-2.419-5.798-5.339-5.798
	C260.629,141.074,258.21,143.285,258.21,146.872"/>
<path class="st0" d="M297.667,147.414c0,5.923-4.046,10.721-10.72,10.721s-10.678-4.798-10.678-10.721
	c0-5.881,4.088-10.72,10.637-10.72C293.454,136.694,297.667,141.533,297.667,147.414 M281.358,147.414
	c0,3.128,1.877,6.048,5.589,6.048c3.713,0,5.59-2.92,5.59-6.048c0-3.087-2.169-6.09-5.59-6.09
	C283.277,141.324,281.358,144.327,281.358,147.414"/>
<path class="st0" d="M318.813,155.047c-2.378,2.336-4.88,3.254-7.925,3.254c-5.965,0-10.929-3.588-10.929-10.887
	c0-7.3,4.964-10.887,10.929-10.887c2.92,0,5.172,0.834,7.424,3.045l-3.211,3.379c-1.21-1.085-2.712-1.627-4.13-1.627
	c-3.42,0-5.923,2.503-5.923,6.09c0,3.921,2.67,6.006,5.84,6.006c1.627,0,3.253-0.458,4.505-1.71L318.813,155.047z"/>
<path class="st0" d="M326.613,131.314c0,3.962-6.007,3.962-6.007,0C320.606,127.351,326.613,127.351,326.613,131.314
	 M321.065,157.675h5.089v-20.647h-5.089V157.675z"/>
<path class="st0" d="M351.639,147.414c0,5.923-4.047,10.721-10.721,10.721s-10.678-4.798-10.678-10.721
	c0-5.881,4.088-10.72,10.637-10.72C347.425,136.694,351.639,141.533,351.639,147.414 M335.329,147.414
	c0,3.128,1.877,6.048,5.589,6.048c3.713,0,5.59-2.92,5.59-6.048c0-3.087-2.169-6.09-5.59-6.09
	C337.248,141.324,335.329,144.327,335.329,147.414"/>
<path class="st0" d="M368.572,142.576c-1.461-1.376-3.129-1.835-5.09-1.835c-2.419,0-3.754,0.75-3.754,2.043
	c0,1.335,1.21,2.086,3.838,2.253c3.879,0.25,8.802,1.126,8.802,6.59c0,3.629-2.962,6.758-8.844,6.758
	c-3.253,0-6.507-0.543-9.51-3.671l2.502-3.629c1.46,1.627,4.797,2.836,7.091,2.878c1.919,0.042,3.713-0.959,3.713-2.461
	c0-1.418-1.168-2.002-4.088-2.169c-3.879-0.292-8.509-1.71-8.509-6.382c0-4.755,4.922-6.423,8.676-6.423
	c3.212,0,5.632,0.626,8.009,2.711L368.572,142.576z"/>
<path class="st0" d="M402.44,135.526c-1.001-1.668-3.754-3.253-6.924-3.253c-4.089,0-6.049,1.71-6.049,3.879
	c0,2.544,3.003,3.253,6.508,3.67c6.09,0.751,11.762,2.336,11.762,9.302c0,6.508-5.756,9.303-12.263,9.303
	c-5.966,0-10.554-1.836-12.723-7.176l4.589-2.377c1.293,3.211,4.671,4.631,8.218,4.631c3.462,0,6.715-1.211,6.715-4.381
	c0-2.753-2.878-3.879-6.757-4.296c-5.966-0.709-11.472-2.294-11.472-8.843c0-6.007,5.923-8.468,11.305-8.509
	c4.547,0,9.26,1.293,11.471,5.798L402.44,135.526z"/>
<polygon class="st0" points="417.497,128.478 417.497,152.586 432.513,152.586 432.513,157.676 411.991,157.676 411.991,128.478 "/>
<path class="st0" d="M457.121,152.169h-15.266l-2.504,5.506h-5.964l13.098-29.197h6.006l13.098,29.197h-6.007L457.121,152.169z
	 M449.488,134.609l-5.422,12.43h10.844L449.488,134.609z"/>
<path class="st0" d="M160.884,207.371c-2.179,2.178-5.073,3.268-7.936,3.268c-7.345,0-11.173-5.135-11.204-11.017
	c-0.063-5.82,3.734-11.268,11.204-11.268c2.863,0,5.757,1.09,7.936,3.269l-1.152,0.996c-1.867-1.867-4.326-2.771-6.784-2.771
	c-6.349,0-9.617,4.482-9.586,9.71c0.062,5.104,3.299,9.524,9.586,9.524c2.458,0,4.948-0.935,6.816-2.771L160.884,207.371z"/>
<path class="st0" d="M185.845,199.528c-0.031,5.727-3.672,11.234-10.986,11.234s-10.987-5.54-10.987-11.297
	c0-5.851,3.642-11.204,10.987-11.204S185.876,193.646,185.845,199.528 M165.522,199.497c0.031,4.917,3.143,9.71,9.337,9.71
	c6.224,0,9.368-4.793,9.368-9.71c0-5.042-3.113-9.679-9.368-9.679C168.603,189.818,165.491,194.362,165.522,199.497"/>
<polygon class="st0" points="202.31,188.604 203.243,188.604 209.903,208.522 216.656,188.604 218.461,188.604 210.774,210.452 
	208.969,210.452 205.516,200.244 202.776,191.623 200.038,200.182 196.551,210.452 194.747,210.452 187.122,188.604 
	188.896,188.604 195.618,208.522 "/>
<path class="st0" d="M242.428,199.528c-0.031,5.727-3.672,11.234-10.986,11.234c-7.314,0-10.986-5.54-10.986-11.297
	c0-5.851,3.641-11.204,10.986-11.204C238.786,188.262,242.458,193.646,242.428,199.528 M222.104,199.497
	c0.031,4.917,3.143,9.71,9.337,9.71c6.224,0,9.368-4.793,9.368-9.71c0-5.042-3.113-9.679-9.368-9.679
	C225.186,189.818,222.073,194.362,222.104,199.497"/>
<path class="st0" d="M263.81,210.39h-2.21l-7.532-8.248h-5.944v8.248h-1.681v-21.786h9.586c4.731,0,7.127,3.393,7.158,6.785
	c0.031,3.548-2.303,6.66-7.064,6.66L263.81,210.39z M248.123,200.555h7.719c3.797,0,5.478-2.146,5.509-5.196
	c0.031-2.553-1.712-5.198-5.322-5.198h-7.905V200.555z"/>
<polygon class="st0" points="281.923,210.39 279.807,210.39 268.322,199.652 268.322,210.358 266.642,210.358 266.642,188.604 
	268.322,188.604 268.322,198.531 278.903,188.604 280.927,188.604 280.927,188.76 269.972,199.029 281.923,210.266 "/>
<rect x="284.164" y="188.604" class="st0" width="1.65" height="21.786"/>
<polygon class="st0" points="291.354,188.604 306.013,206.624 306.013,188.604 307.661,188.604 307.661,210.39 307.008,210.39 
	292.318,192.401 292.318,210.39 290.638,210.39 290.638,188.604 "/>
<path class="st0" d="M329.666,192.619c-1.898-1.867-4.544-2.802-7.002-2.802c-6.382,0-9.649,4.668-9.617,9.71
	c0,5.136,3.267,9.556,9.617,9.556c2.334,0,4.761-0.81,6.629-2.521v-6.1h-7.595v-1.463h9.182v8.153
	c-2.272,2.272-4.98,3.518-8.216,3.518c-7.408,0-11.236-5.166-11.236-11.111c-0.031-6.814,4.605-11.266,11.236-11.266
	c2.862,0,5.757,1.089,7.967,3.268L329.666,192.619z"/>
</svg>
