<?xml version="1.0" encoding="utf-8"?>
<!-- Generator: Adobe Illustrator 22.0.1, SVG Export Plug-In . SVG Version: 6.00 Build 0)  -->
<svg version="1.1" id="Capa_1" xmlns="http://www.w3.org/2000/svg" xmlns:xlink="http://www.w3.org/1999/xlink" x="0px" y="0px"
	 viewBox="0 0 792 275" style="enable-background:new 0 0 792 275;" xml:space="preserve">
<style type="text/css">
	.st0{fill:#727272;}
	.st1{fill:#4D4D4F;}
</style>
<g>
	<g>
		<g>
			<g>
				<path class="st0" d="M423.6,123.3H414v-23h42.7v9.6h-33.1V123.3z"/>
			</g>
		</g>
		<g>
			<g>
				<path class="st0" d="M456.5,89.2h-42.1l0-20.3c0.1-17.4,14.4-31.6,31.8-31.6c12.1,0,23,6.8,28.5,17.6l0.8,1.6l-11,0l-0.3-0.4
					c-4.2-5.7-10.9-9.1-18-9.1c-12.3,0-22.3,10-22.3,22.3v10.4h32.5V89.2z"/>
			</g>
		</g>
	</g>
	<g>
		<g>
			<g>
				<path class="st0" d="M349.3,100.5c-17.1,0-31-13.9-31-31c0-17.1,13.9-31,31-31c4.9,0,9.4,1.1,13.8,3.4l0.6,0.3l0,11.4l-1.7-1.3
					c-3.7-2.7-8.1-4.2-12.7-4.2c-11.8,0-21.4,9.6-21.4,21.4s9.6,21.4,21.4,21.4c4.3,0,8.9-1.5,12.7-4.2l1.7-1.2v11.4l-0.6,0.3
					C358.6,99.4,353.9,100.5,349.3,100.5z"/>
			</g>
		</g>
	</g>
	<g>
		<path class="st0" d="M349,123.2c-29.5,0-53.6-24.1-53.6-53.8c0-29.6,24-53.8,53.6-53.8c4.5,0,9.4,0.6,13.9,1.8l0.8,0.2v10.6
			l-1.4-0.4c-4.2-1.3-9-2-13.3-2c-23.9,0-43.4,19.6-43.4,43.6c0,24.1,19.5,43.6,43.4,43.6c23.9,0,43.4-19.5,43.4-43.6l0.1-0.9
			c1.1-30.6,24.2-53.7,53.6-53.7c24.2,0,45.5,16.5,51.9,40.2l0.4,1.4h-10.5l-0.2-0.8C481.8,37.6,464.7,25,446,25
			c-23.9,0-43.4,19.6-43.4,43.6c-0.7,19-7.5,28.8-8,29.7l-2.4,3.3C381.5,115.1,365.8,123.2,349,123.2z"/>
	</g>
</g>
<g>
	<path class="st1" d="M321.4,255.6l-2.6-5.7h-13.9l-2.5,5.7h-1.9l10.5-23.3h2l10.5,23.3H321.4z M318.1,248.2l-6.3-14.2l-6.3,14.2
		H318.1z"/>
	<path class="st1" d="M343.7,238.6c0,2.4-1.5,4.3-3.8,5c2.9,0.8,4.6,3.2,4.6,5.9c0,4.8-4.5,6.1-8.5,6.1c-3.4,0-6.2,0-9.6,0v-23.3
		c3.4,0,6.2,0,9.6,0C340,232.3,343.7,234.2,343.7,238.6z M328.3,242.8h8c2.8,0,5.7-0.9,5.7-4.2c0-3.4-3.1-4.8-6-4.8h-7.8V242.8z
		 M328.3,253.9h7.8c2.9,0,6.7-0.7,6.7-4.4c0-3.6-3.3-4.9-6.5-4.9c-2.8,0-5.2,0-8,0V253.9z"/>
	<path class="st1" d="M371.1,244c0,6.1-3.9,12-11.8,12s-11.8-5.9-11.8-12.1c0-6.3,3.9-12,11.8-12S371.1,237.7,371.1,244z
		 M349.3,243.9c0,5.3,3.4,10.4,10,10.4c6.7,0,10-5.1,10-10.4c0-5.4-3.3-10.4-10-10.4S349.3,238.4,349.3,243.9z"/>
	<path class="st1" d="M394.2,236.6c-2-2-4.9-3-7.5-3c-6.8,0-10.3,5-10.3,10.4c0,5.5,3.5,10.2,10.3,10.2c2.5,0,5.1-0.9,7.1-2.7V245
		h-8.1v-1.6h9.8v8.7c-2.4,2.4-5.3,3.8-8.8,3.8c-7.9,0-12-5.5-12-11.9c0-7.3,4.9-12.1,12-12.1c3.1,0,6.2,1.2,8.5,3.5L394.2,236.6z"/>
	<path class="st1" d="M418.7,255.6l-2.6-5.7h-13.9l-2.5,5.7h-1.9l10.5-23.3h2l10.5,23.3H418.7z M415.5,248.2l-6.3-14.2l-6.3,14.2
		H415.5z"/>
	<path class="st1" d="M443.6,243.7c0.1,5.9-3.7,11.9-11.8,11.9c-2.6,0-5.3,0-7.9,0v-23.3c2.6,0,5.3,0,7.9,0
		C439.6,232.3,443.4,237.9,443.6,243.7z M425.7,234v19.9h6.1c6.9,0,10.1-5.2,10-10.2c-0.1-4.9-3.3-9.7-10-9.7H425.7z"/>
	<path class="st1" d="M470.8,244c0,6.1-3.9,12-11.8,12c-7.8,0-11.8-5.9-11.8-12.1c0-6.3,3.9-12,11.8-12S470.9,237.7,470.8,244z
		 M449.1,243.9c0,5.3,3.4,10.4,10,10.4c6.7,0,10-5.1,10-10.4c0-5.4-3.3-10.4-10-10.4S449,238.4,449.1,243.9z"/>
	<path class="st1" d="M490.7,236.8c-1.7-2.7-4.4-3.1-7.1-3.2c-2.7,0-7.1,1-7.1,4.7c0,3,3.2,3.7,7.1,4.4c4.5,0.9,9.2,1.7,9.2,6.7
		c0,5.3-5.3,6.5-9.2,6.5c-3.6,0-7.8-1.5-9.6-5.1l1.6-0.8c1.4,2.8,5.1,4.2,8,4.2c2.9,0,7.4-0.8,7.4-4.9c0-3.5-3.8-4.3-7.7-5
		c-4.3-0.8-8.6-1.7-8.6-6c-0.1-4.9,5-6.5,8.9-6.5c3.3,0,6.2,0.5,8.5,4L490.7,236.8z"/>
</g>
<g>
	<g>
		<path class="st1" d="M158,194.6c-4.9,4.9-11.3,7.1-18.2,7.1c-17.8,0-25.3-12.3-25.4-24.7c-0.1-12.5,8.1-25.3,25.4-25.3
			c6.5,0,12.7,2.5,17.6,7.3l-6,5.8c-3.2-3.1-7.4-4.5-11.6-4.5c-11.6,0-16.6,8.6-16.5,16.6c0.1,7.9,4.7,16.2,16.5,16.2
			c4.2,0,8.9-1.7,12.1-4.9L158,194.6z"/>
		<path class="st1" d="M196.4,191.6h-25.1l-4.1,9h-9.8l21.5-48h9.9l21.5,48h-9.9L196.4,191.6z M183.8,162.7l-8.9,20.4h17.8
			L183.8,162.7z"/>
		<path class="st1" d="M256.2,200.6h-10.8l-14-16h-8.7v16h-9v-48c7.6,0,15.2,0.1,22.8,0.1c11.3,0.1,17.3,7.6,17.3,15.9
			c0,6.6-3,13.2-12.1,15.1l14.5,16.4V200.6z M222.7,161.1v15.3h13.8c5.8,0,8.2-3.8,8.2-7.7c0-3.8-2.5-7.7-8.2-7.7H222.7z"/>
		<path class="st1" d="M307,176.9c-0.1,12.4-7.7,24.8-24.6,24.8c-16.9,0-24.7-12.1-24.7-24.7c0-12.6,8.1-25.3,24.7-25.3
			C298.9,151.7,307.2,164.4,307,176.9z M266.7,177.1c0.2,7.9,4.5,16.3,15.8,16.3c11.3,0,15.6-8.5,15.7-16.4
			c0.1-8.1-4.4-17.1-15.7-17.1C271.1,159.9,266.5,169,266.7,177.1z"/>
		<path class="st1" d="M330.3,200.6v-47.9h34.5v8.7h-25.4v13.1h24v8.4h-24v17.7H330.3z"/>
		<path class="st1" d="M373.1,200.6v-48h9v48H373.1z"/>
		<path class="st1" d="M427.4,164.4c-3.2-3.1-8-4.8-12.2-4.8c-10.3,0-16.5,7.8-16.5,17.7c0,7.9,4.6,16,16.5,16
			c3.8,0,7.1-0.8,10.8-3.8V181h-12.3v-8.1h20.6v20.2c-4.7,5.4-10.7,8.6-19.1,8.6c-18,0-25.4-11.9-25.4-24.5c0-13.5,8.4-26,25.4-26
			c6.4,0,12.9,2.5,17.8,7.3L427.4,164.4z"/>
		<path class="st1" d="M483.8,152.7v27.5c0,14.2-8.7,21.4-20.8,21.4c-11.5,0-21.3-7-21.3-21.4v-27.5h9v27.5
			c0,8.6,4.9,13.2,12.4,13.2s11.7-5,11.7-13.2v-27.5H483.8z"/>
		<path class="st1" d="M527.7,200.6h-35.9c0-16,0-32,0-48h35.9v8.8h-26.9v11h26v8.4h-26v10.8h26.9V200.6z"/>
		<path class="st1" d="M577.3,200.6h-10.8l-14-16h-8.7v16h-9v-48c7.6,0,15.2,0.1,22.8,0.1c11.3,0.1,17.3,7.6,17.3,15.9
			c0,6.6-3,13.2-12.1,15.1l14.5,16.4V200.6z M543.9,161.1v15.3h13.8c5.8,0,8.2-3.8,8.2-7.7c0-3.8-2.5-7.7-8.2-7.7H543.9z"/>
		<path class="st1" d="M628.5,176.9c-0.1,12.4-7.7,24.8-24.6,24.8c-16.9,0-24.7-12.1-24.7-24.7c0-12.6,8.1-25.3,24.7-25.3
			C620.4,151.7,628.6,164.4,628.5,176.9z M588.1,177.1c0.2,7.9,4.5,16.3,15.8,16.3c11.3,0,15.6-8.5,15.7-16.4
			c0.1-8.1-4.4-17.1-15.7-17.1C592.6,159.9,587.9,169,588.1,177.1z"/>
		<path class="st1" d="M665.1,191.6H640l-4.1,9h-9.8l21.5-48h9.9l21.5,48h-9.9L665.1,191.6z M652.6,162.7l-8.9,20.4h17.8
			L652.6,162.7z"/>
	</g>
</g>
<g>
	<path class="st1" d="M578.3,219H215.1c-0.5,0-0.8-0.4-0.8-0.8s0.4-0.8,0.8-0.8h363.2c0.5,0,0.8,0.4,0.8,0.8S578.7,219,578.3,219z"
		/>
</g>
</svg>
